<mxfile host="app.diagrams.net" agent="Mozilla/5.0 (Windows NT 10.0; Win64; x64) AppleWebKit/537.36 (KHTML, like Gecko) Chrome/138.0.0.0 Safari/537.36" version="27.1.6">
  <diagram name="Página-1" id="e45OjPIBaFHz5NlUAJ0t">
    <mxGraphModel grid="1" page="1" gridSize="10" guides="1" tooltips="1" connect="1" arrows="1" fold="1" pageScale="1" pageWidth="827" pageHeight="1169" math="0" shadow="0">
      <root>
        <mxCell id="0" />
        <mxCell id="1" parent="0" />
        <mxCell id="2QU0HHwjT5UGIkDu3ld_-37" value="CU018 Registrar Recurso" style="swimlane;childLayout=stackLayout;resizeParent=1;resizeParentMax=0;startSize=20;horizontal=0;horizontalStack=1;fontStyle=1" vertex="1" parent="1">
          <mxGeometry x="860" y="40" width="780" height="610" as="geometry">
            <mxRectangle x="200" y="80" width="40" height="50" as="alternateBounds" />
          </mxGeometry>
        </mxCell>
        <mxCell id="2QU0HHwjT5UGIkDu3ld_-45" style="edgeStyle=orthogonalEdgeStyle;rounded=0;orthogonalLoop=1;jettySize=auto;html=1;entryX=0;entryY=0.5;entryDx=0;entryDy=0;strokeColor=light-dark(#ff0000, #ededed);" edge="1" parent="2QU0HHwjT5UGIkDu3ld_-37" source="f1jzGoTAvL0P6nYRuldl-1" target="2QU0HHwjT5UGIkDu3ld_-49">
          <mxGeometry relative="1" as="geometry">
            <Array as="points" />
            <mxPoint x="280" y="110" as="sourcePoint" />
          </mxGeometry>
        </mxCell>
        <mxCell id="2QU0HHwjT5UGIkDu3ld_-38" value="Administrador" style="swimlane;startSize=20;" vertex="1" parent="2QU0HHwjT5UGIkDu3ld_-37">
          <mxGeometry x="20" width="290" height="610" as="geometry" />
        </mxCell>
        <mxCell id="2QU0HHwjT5UGIkDu3ld_-39" value="" style="ellipse;html=1;shape=startState;fillColor=#000000;strokeColor=#ff0000;fillStyle=auto;" vertex="1" parent="2QU0HHwjT5UGIkDu3ld_-38">
          <mxGeometry x="20" y="25" width="30" height="30" as="geometry" />
        </mxCell>
        <mxCell id="2QU0HHwjT5UGIkDu3ld_-41" value="" style="edgeStyle=orthogonalEdgeStyle;html=1;verticalAlign=bottom;endArrow=open;endSize=8;strokeColor=#ff0000;rounded=0;" edge="1" parent="2QU0HHwjT5UGIkDu3ld_-38" source="2QU0HHwjT5UGIkDu3ld_-39" target="f1jzGoTAvL0P6nYRuldl-1">
          <mxGeometry relative="1" as="geometry">
            <mxPoint x="165" y="55" as="targetPoint" />
            <mxPoint x="340" y="320" as="sourcePoint" />
          </mxGeometry>
        </mxCell>
        <mxCell id="19LpKT9WDkHHw6tPcPYI-1" value="Registrar un nuevo recurso" style="rounded=1;whiteSpace=wrap;html=1;arcSize=40;fontColor=#000000;fillColor=#ffffc0;strokeColor=#ff0000;" vertex="1" parent="2QU0HHwjT5UGIkDu3ld_-38">
          <mxGeometry x="85" y="190" width="120" height="50" as="geometry" />
        </mxCell>
        <mxCell id="19LpKT9WDkHHw6tPcPYI-8" value="Pulsar el botón &quot;Guardar&quot;" style="rounded=1;whiteSpace=wrap;html=1;arcSize=40;fontColor=#000000;fillColor=#ffffc0;strokeColor=#ff0000;" vertex="1" parent="2QU0HHwjT5UGIkDu3ld_-38">
          <mxGeometry x="85" y="280" width="120" height="40" as="geometry" />
        </mxCell>
        <mxCell id="19LpKT9WDkHHw6tPcPYI-2" style="edgeStyle=orthogonalEdgeStyle;rounded=0;orthogonalLoop=1;jettySize=auto;html=1;entryX=0.5;entryY=0;entryDx=0;entryDy=0;strokeColor=light-dark(#ff0000, #ededed);" edge="1" parent="2QU0HHwjT5UGIkDu3ld_-38" source="19LpKT9WDkHHw6tPcPYI-1" target="19LpKT9WDkHHw6tPcPYI-8">
          <mxGeometry relative="1" as="geometry">
            <mxPoint x="414.9999999999998" y="270" as="targetPoint" />
            <Array as="points" />
          </mxGeometry>
        </mxCell>
        <mxCell id="f1jzGoTAvL0P6nYRuldl-1" value="Pulsa el apartado &quot;Recursos&quot;" style="rounded=1;whiteSpace=wrap;html=1;arcSize=40;fontColor=#000000;fillColor=#ffffc0;strokeColor=#ff0000;" vertex="1" parent="2QU0HHwjT5UGIkDu3ld_-38">
          <mxGeometry x="90" y="80" width="120" height="50" as="geometry" />
        </mxCell>
        <mxCell id="19LpKT9WDkHHw6tPcPYI-9" value="" style="edgeStyle=orthogonalEdgeStyle;html=1;verticalAlign=bottom;endArrow=open;endSize=8;strokeColor=#ff0000;rounded=0;entryX=0;entryY=0.5;entryDx=0;entryDy=0;exitX=1;exitY=0.5;exitDx=0;exitDy=0;" edge="1" parent="2QU0HHwjT5UGIkDu3ld_-37" source="19LpKT9WDkHHw6tPcPYI-8" target="19LpKT9WDkHHw6tPcPYI-20">
          <mxGeometry relative="1" as="geometry">
            <mxPoint x="165" y="480" as="targetPoint" />
            <mxPoint x="165" y="390" as="sourcePoint" />
            <Array as="points">
              <mxPoint x="470" y="300" />
            </Array>
          </mxGeometry>
        </mxCell>
        <mxCell id="2QU0HHwjT5UGIkDu3ld_-47" value="Sistema" style="swimlane;startSize=20;" vertex="1" parent="2QU0HHwjT5UGIkDu3ld_-37">
          <mxGeometry x="310" width="470" height="610" as="geometry" />
        </mxCell>
        <mxCell id="2QU0HHwjT5UGIkDu3ld_-49" value="Mostrar apartado" style="rounded=1;whiteSpace=wrap;html=1;arcSize=50;fontColor=#000000;fillColor=#ffffc0;strokeColor=#ff0000;" vertex="1" parent="2QU0HHwjT5UGIkDu3ld_-47">
          <mxGeometry x="170" y="80" width="120" height="50" as="geometry" />
        </mxCell>
        <mxCell id="2QU0HHwjT5UGIkDu3ld_-42" value="" style="ellipse;html=1;shape=endState;fillColor=#000000;strokeColor=#ff0000;" vertex="1" parent="2QU0HHwjT5UGIkDu3ld_-47">
          <mxGeometry x="370" y="550" width="30" height="30" as="geometry" />
        </mxCell>
        <mxCell id="19LpKT9WDkHHw6tPcPYI-15" value="si" style="edgeStyle=orthogonalEdgeStyle;html=1;align=left;verticalAlign=bottom;endArrow=open;endSize=8;strokeColor=#ff0000;rounded=0;entryX=0.5;entryY=0;entryDx=0;entryDy=0;exitX=1;exitY=0.5;exitDx=0;exitDy=0;" edge="1" parent="2QU0HHwjT5UGIkDu3ld_-47" source="19LpKT9WDkHHw6tPcPYI-20" target="19LpKT9WDkHHw6tPcPYI-18">
          <mxGeometry x="-1" relative="1" as="geometry">
            <mxPoint x="305" y="530" as="targetPoint" />
            <mxPoint x="282.5" y="490" as="sourcePoint" />
            <mxPoint as="offset" />
          </mxGeometry>
        </mxCell>
        <mxCell id="19LpKT9WDkHHw6tPcPYI-19" style="edgeStyle=orthogonalEdgeStyle;rounded=0;orthogonalLoop=1;jettySize=auto;html=1;entryX=0.5;entryY=0;entryDx=0;entryDy=0;strokeColor=light-dark(#ff0000, #ededed);" edge="1" parent="2QU0HHwjT5UGIkDu3ld_-47" source="19LpKT9WDkHHw6tPcPYI-18" target="2QU0HHwjT5UGIkDu3ld_-42">
          <mxGeometry relative="1" as="geometry" />
        </mxCell>
        <mxCell id="19LpKT9WDkHHw6tPcPYI-18" value="Mostrar mensaje de éxito" style="rounded=1;whiteSpace=wrap;html=1;arcSize=40;fontColor=#000000;fillColor=#ffffc0;strokeColor=#ff0000;" vertex="1" parent="2QU0HHwjT5UGIkDu3ld_-47">
          <mxGeometry x="325" y="410" width="120" height="40" as="geometry" />
        </mxCell>
        <mxCell id="19LpKT9WDkHHw6tPcPYI-20" value="¿Datos válidos?" style="rhombus;whiteSpace=wrap;html=1;fontColor=#000000;fillColor=#ffffc0;strokeColor=#ff0000;" vertex="1" parent="2QU0HHwjT5UGIkDu3ld_-47">
          <mxGeometry x="160" y="275" width="93" height="50" as="geometry" />
        </mxCell>
        <mxCell id="19LpKT9WDkHHw6tPcPYI-26" value="Mostrar mensaje de error" style="rounded=1;whiteSpace=wrap;html=1;arcSize=40;fontColor=#000000;fillColor=#ffffc0;strokeColor=#ff0000;" vertex="1" parent="2QU0HHwjT5UGIkDu3ld_-47">
          <mxGeometry x="30" y="450" width="120" height="40" as="geometry" />
        </mxCell>
        <mxCell id="19LpKT9WDkHHw6tPcPYI-24" style="edgeStyle=orthogonalEdgeStyle;rounded=0;orthogonalLoop=1;jettySize=auto;html=1;entryX=1;entryY=0.5;entryDx=0;entryDy=0;fontColor=#FF0000;strokeColor=light-dark(#ff0000, #ededed);" edge="1" parent="2QU0HHwjT5UGIkDu3ld_-47" source="19LpKT9WDkHHw6tPcPYI-20" target="19LpKT9WDkHHw6tPcPYI-26">
          <mxGeometry relative="1" as="geometry">
            <Array as="points">
              <mxPoint x="207" y="470" />
            </Array>
          </mxGeometry>
        </mxCell>
        <mxCell id="19LpKT9WDkHHw6tPcPYI-25" value="no" style="edgeLabel;html=1;align=center;verticalAlign=middle;resizable=0;points=[];" vertex="1" connectable="0" parent="19LpKT9WDkHHw6tPcPYI-24">
          <mxGeometry x="-0.941" y="-3" relative="1" as="geometry">
            <mxPoint as="offset" />
          </mxGeometry>
        </mxCell>
        <mxCell id="sgAW8uFoZmO3ORvUETgr-1" value="Mostrar listado de recursos" style="rounded=1;whiteSpace=wrap;html=1;arcSize=40;fontColor=#000000;fillColor=#ffffc0;strokeColor=#ff0000;" vertex="1" parent="2QU0HHwjT5UGIkDu3ld_-47">
          <mxGeometry x="30" y="190" width="120" height="50" as="geometry" />
        </mxCell>
        <mxCell id="2QU0HHwjT5UGIkDu3ld_-48" style="edgeStyle=orthogonalEdgeStyle;rounded=0;orthogonalLoop=1;jettySize=auto;html=1;strokeColor=light-dark(#ff0000, #ededed);entryX=1;entryY=0.5;entryDx=0;entryDy=0;exitX=0.5;exitY=1;exitDx=0;exitDy=0;" edge="1" parent="2QU0HHwjT5UGIkDu3ld_-47" source="2QU0HHwjT5UGIkDu3ld_-49" target="sgAW8uFoZmO3ORvUETgr-1">
          <mxGeometry relative="1" as="geometry">
            <mxPoint x="180" y="200" as="targetPoint" />
            <Array as="points">
              <mxPoint x="210" y="215" />
            </Array>
          </mxGeometry>
        </mxCell>
        <mxCell id="19LpKT9WDkHHw6tPcPYI-27" style="edgeStyle=orthogonalEdgeStyle;rounded=0;orthogonalLoop=1;jettySize=auto;html=1;entryX=0;entryY=0.5;entryDx=0;entryDy=0;fontColor=light-dark(#FF0000,#EDEDED);strokeColor=light-dark(#ff0000, #ededed);" edge="1" parent="2QU0HHwjT5UGIkDu3ld_-37" source="19LpKT9WDkHHw6tPcPYI-26" target="19LpKT9WDkHHw6tPcPYI-1">
          <mxGeometry relative="1" as="geometry" />
        </mxCell>
        <mxCell id="sgAW8uFoZmO3ORvUETgr-2" style="edgeStyle=orthogonalEdgeStyle;rounded=0;orthogonalLoop=1;jettySize=auto;html=1;entryX=1;entryY=0.5;entryDx=0;entryDy=0;" edge="1" parent="2QU0HHwjT5UGIkDu3ld_-37" source="sgAW8uFoZmO3ORvUETgr-1" target="19LpKT9WDkHHw6tPcPYI-1">
          <mxGeometry relative="1" as="geometry" />
        </mxCell>
      </root>
    </mxGraphModel>
  </diagram>
</mxfile>
